<?xml version="1.0" encoding="UTF-8" standalone="no"?>
<!-- Created with Inkscape (http://www.inkscape.org/) -->

<svg
   version="1.1"
   id="svg1"
   width="1024"
   height="1024"
   viewBox="0 0 1024 1024"
   sodipodi:docname="draw2.svg"
   inkscape:version="1.4 (86a8ad7, 2024-10-11)"
   xml:space="preserve"
   xmlns:inkscape="http://www.inkscape.org/namespaces/inkscape"
   xmlns:sodipodi="http://sodipodi.sourceforge.net/DTD/sodipodi-0.dtd"
   xmlns="http://www.w3.org/2000/svg"
   xmlns:svg="http://www.w3.org/2000/svg"><defs
     id="defs1" /><sodipodi:namedview
     id="namedview1"
     pagecolor="#ffffff"
     bordercolor="#000000"
     borderopacity="0.25"
     inkscape:showpageshadow="2"
     inkscape:pageopacity="0.0"
     inkscape:pagecheckerboard="0"
     inkscape:deskcolor="#d1d1d1"
     inkscape:zoom="0.55726091"
     inkscape:cx="419.91102"
     inkscape:cy="487.20446"
     inkscape:window-width="1920"
     inkscape:window-height="1009"
     inkscape:window-x="1912"
     inkscape:window-y="112"
     inkscape:window-maximized="1"
     inkscape:current-layer="g1" /><g
     inkscape:groupmode="layer"
     inkscape:label="Image"
     id="g1"
     style="display:inline"><path
       style="display:inline;fill:#efeeca;fill-opacity:1;stroke:none;stroke-width:5;stroke-linecap:round;stroke-linejoin:round;stroke-dasharray:none;stroke-opacity:1"
       d="m 127.4089,529.37501 52.9375,-108.56674 c 0,0 26.44244,-65.49708 4.48623,-81.64937 C 130.87639,299.46549 54.894781,201.22383 211.75,119.33369 c 84.60147,-44.168288 286.22141,7.17796 286.22141,7.17796 22.94642,82.91305 -7.17668,208.94507 69.08792,248.53709 88.79531,-24.78351 149.70443,-9.20519 201.57242,-6.5622 306.17075,34.12167 136.74128,275.64305 83.38009,231.80824 C 537.71601,707.97326 369.17485,546.20718 127.4089,529.37501 Z"
       id="path33"
       sodipodi:nodetypes="ccssccccc"
       inkscape:label="plamka" /><path
       style="fill:#f69d4e;fill-opacity:1;stroke:none;stroke-width:5;stroke-linecap:round;stroke-linejoin:round;stroke-dasharray:none;stroke-opacity:1"
       d="m 335.1213,254.36918 -4.03761,64.60169 c -7.59512,102.45987 186.46642,155.01668 191.11335,-48.00264 l 3.58899,-92.41632 -21.98252,-19.73941 -141.31621,9.42108 z"
       id="path34"
       sodipodi:nodetypes="ccccccc"
       inkscape:label="twarz" /><g
       id="g5"
       inkscape:label="obiekty-na-twarzy"><ellipse
         style="fill:#4a3509;fill-opacity:1;stroke:none;stroke-width:0.5;stroke-linecap:round;stroke-linejoin:round"
         id="path1"
         cx="407.79822"
         cy="270.29529"
         rx="9.4210806"
         ry="12.33713"
         inkscape:label="oko-lewe" /><ellipse
         style="fill:#4a3509;fill-opacity:1;stroke:none;stroke-width:0.5;stroke-linecap:round;stroke-linejoin:round"
         id="path1-8"
         cx="485.62659"
         cy="271.73807"
         rx="9.4210806"
         ry="12.33713"
         inkscape:label="oko-prawe" /><path
         style="fill:none;fill-opacity:1;stroke:#4a390d;stroke-width:5;stroke-linecap:round;stroke-linejoin:round;stroke-dasharray:none;stroke-opacity:1"
         d="m 386.70963,232.49881 c 20.993,-11.42418 28.08564,-7.51506 39.58629,-1.60537"
         id="path2"
         inkscape:label="brew-lewa"
         sodipodi:nodetypes="cc" /><path
         style="fill:none;fill-opacity:1;stroke:#4a390d;stroke-width:5;stroke-linecap:round;stroke-linejoin:round;stroke-dasharray:none;stroke-opacity:1"
         d="m 473.18499,231.04079 c 14.66751,-2.94303 26.526,-3.49447 35.55336,7.51443"
         id="path3"
         sodipodi:nodetypes="cc"
         inkscape:label="brew-prawa" /><path
         style="fill:none;fill-opacity:1;stroke:#4a390d;stroke-width:5;stroke-linecap:round;stroke-linejoin:round;stroke-dasharray:none;stroke-opacity:1"
         d="m 454.79146,266.03337 c 3.67759,20.13857 8.02438,37.43305 12.89791,52.48888 -6.22734,9.75986 -16.49536,8.73524 -25.90798,5.15917"
         id="path4"
         sodipodi:nodetypes="ccc"
         inkscape:label="nos" /><path
         style="fill:none;fill-opacity:1;stroke:#4a390d;stroke-width:5;stroke-linecap:round;stroke-linejoin:round;stroke-dasharray:none;stroke-opacity:1"
         d="m 408.91976,344.31807 c 16.44001,10.84294 31.79043,12.23336 50.02146,8.74815"
         id="path5"
         sodipodi:nodetypes="cc"
         inkscape:label="usta" /></g><g
       id="g12"
       inkscape:label="wlosy"><path
         style="fill:#39280d;fill-opacity:1;stroke:#39280d;stroke-width:5;stroke-linecap:round;stroke-linejoin:round;stroke-dasharray:none;stroke-opacity:1"
         d="m 307.02708,270.93955 c 42.61407,-2.97972 42.4191,-47.23959 53.83475,-80.3035 11.00572,-16.31085 29.37358,-23.46112 54.732,-13.45869 35.49386,7.06842 66.75921,28.03941 119.7823,-26.46875 14.49465,-22.88303 -5.38863,-47.7811 -26.46875,-56.077859 -24.3165,-6.548863 -47.93707,1.194933 -72.67691,9.869699 -30.78414,-8.887284 -57.37571,-1.00427 -83.44385,8.97246 -21.28472,6.30917 -32.36202,19.90935 -45.75954,31.85223 -25.23777,31.41569 -20.28132,73.08812 -17.04767,88.60301 4.25811,8.5567 7.40666,22.09951 17.04767,37.0114 z"
         id="path6"
         sodipodi:nodetypes="cccccccccc"
         inkscape:label="wlosy-1" /><path
         style="fill:#39280d;fill-opacity:1;stroke:#39280d;stroke-width:5;stroke-linecap:round;stroke-linejoin:round;stroke-dasharray:none;stroke-opacity:1"
         d="m 511.84139,172.72862 c 15.44092,30.04243 11.65153,63.21537 9.51673,96.11896 2.06312,-34.96419 25.18841,-57.49825 4.12391,-106.11152 z"
         id="path7"
         sodipodi:nodetypes="cccc"
         inkscape:label="wlosy-2" /></g><g
       id="g29"
       inkscape:label="szyja"><path
         style="fill:#f69d4e;fill-opacity:1;stroke:none;stroke-width:5;stroke-linecap:round;stroke-linejoin:round;stroke-dasharray:none;stroke-opacity:1"
         d="m 329.91326,386.37918 c 1.44082,-12.2523 1.52953,-31.26521 2.22057,-47.26641 27.69078,31.06812 50.7307,51.36693 72.01442,61.02335 17.68171,8.02219 34.15135,8.69936 51.0686,2.10428 -1.05938,14.20591 -1.15774,27.77114 0.31723,40.28748 -17.17352,12.77374 -47.02462,48.77573 -119.91078,1.2689 -6.00619,-18.45539 -4.21859,-38.20975 -5.71004,-57.4176 z"
         id="path27"
         sodipodi:nodetypes="ccscccc"
         inkscape:label="szyja" /><path
         style="fill:#e8873d;fill-opacity:1;stroke:none;stroke-width:5;stroke-linecap:round;stroke-linejoin:round;stroke-dasharray:none;stroke-opacity:1"
         d="m 345.61586,367.0285 c 34.46574,56.99512 85.46834,71.63692 108.64932,46.15614 l -0.15861,-10.78563 C 420.82648,415.40675 382.96929,389.05146 345.61586,367.0285 Z"
         id="path29"
         sodipodi:nodetypes="cccc"
         inkscape:label="cien" /></g><g
       id="g11"
       inkscape:label="sluchawki"><ellipse
         style="fill:#003c12;fill-opacity:1;stroke:#003d14;stroke-width:4.80288;stroke-linecap:round;stroke-linejoin:round;stroke-dasharray:none;stroke-opacity:1"
         id="path9"
         cx="305.73651"
         cy="275.0058"
         rx="32.175095"
         ry="46.306713"
         inkscape:label="sluchawki2" /><ellipse
         style="fill:#147a31;fill-opacity:1;stroke:#147a31;stroke-width:5.74552;stroke-linecap:round;stroke-linejoin:round;stroke-dasharray:none;stroke-opacity:1"
         id="path8"
         cx="295.86679"
         cy="275.00586"
         rx="22.058384"
         ry="40.227612"
         inkscape:label="sluchawki1" /><path
         style="fill:#003c12;fill-opacity:1;stroke:none;stroke-width:5;stroke-linecap:round;stroke-linejoin:round;stroke-dasharray:none;stroke-opacity:1"
         d="m 311.75217,320.63445 c 10.49456,19.25408 26.05071,38.12835 51.63237,48.58219 5.86291,-6.52665 10.0891,-5.68808 13.85289,-2.76871 l 18.67227,6.582 c 2.61099,3.44243 4.91015,7.04078 3.36467,12.56144 -1.58382,3.8618 -4.65219,6.02697 -9.19677,6.50504 l -23.5527,-10.09402 c -3.91578,-0.96093 -4.01537,-3.44834 -4.93485,-5.60779 -22.70542,-12.38267 -47.72329,-25.84042 -55.41619,-55.77327"
         id="path10"
         sodipodi:nodetypes="ccccccccc"
         inkscape:label="mikrofon" /><path
         style="fill:#003c12;fill-opacity:1;stroke:none;stroke-width:5;stroke-linecap:round;stroke-linejoin:round;stroke-dasharray:none;stroke-opacity:1"
         d="m 313.89343,227.13259 c -1.4664,-79.542 31.17228,-127.15356 127.10608,-125.10089 0.564,0.0121 0.009,-2.439996 0.5767,-2.423274 C 395.15784,80.3373 287.53985,100.65261 297.87361,228.08426 Z"
         id="path11"
         sodipodi:nodetypes="csccc"
         inkscape:label="sluchawki3" /></g><path
       style="fill:#ffffff;fill-opacity:1;stroke:none;stroke-width:5;stroke-linecap:round;stroke-linejoin:round;stroke-dasharray:none;stroke-opacity:1"
       d="m 332.45106,440.30731 16.17843,384.47584 100.5601,3.48947 17.13011,-392.88229 c -47.91611,30.12203 -95.51964,32.19761 -133.86864,4.91698 z"
       id="path30"
       sodipodi:nodetypes="ccccc"
       inkscape:label="bluzka" /><g
       id="g22"
       inkscape:label="marynarka-lewa"><path
         style="fill:#085e20;fill-opacity:1;stroke:none;stroke-width:35;stroke-linecap:round;stroke-linejoin:round;stroke-dasharray:none;stroke-opacity:1"
         d="m 329.27881,385.42751 c 15.08181,151.43738 38.40477,300.92292 23.11447,459.5537 H 175.10781 V 824.1487 C 109.63191,863.7339 74.804801,835.68038 58.320976,767.14514 L 105.875,553.60065 c 12.71533,-41.39706 23.21279,-53.03256 83.86994,-96.58533 47.65046,-24.6766 98.58572,-45.0603 139.53387,-71.58781 z"
         id="path20"
         sodipodi:nodetypes="cccccccc"
         inkscape:label="marynarka-lewa" /><path
         style="fill:none;fill-opacity:1;stroke:#003c12;stroke-width:5;stroke-linecap:round;stroke-linejoin:round;stroke-dasharray:none;stroke-opacity:1"
         d="m 83.112763,711.53408 c 12.836855,-26.70988 20.521927,-43.38599 39.258837,-85.65056 30.28339,22.77932 62.336,26.30058 99.87452,21.64162 -11.65817,55.24866 -7.03117,113.45375 -37.30436,167.10683"
         id="path21"
         sodipodi:nodetypes="cccc"
         inkscape:label="obrys" /><path
         style="fill:none;fill-opacity:1;stroke:#003c12;stroke-width:5;stroke-linecap:round;stroke-linejoin:round;stroke-dasharray:none;stroke-opacity:1"
         d="m 123.03483,625.26815 c 37.55091,2.52572 71.21231,6.20566 98.69703,21.75821"
         id="path22"
         sodipodi:nodetypes="cc"
         inkscape:label="obrys-za-reka" /><path
         style="fill:none;fill-opacity:0.591398;stroke:#003c12;stroke-width:5;stroke-linecap:round;stroke-linejoin:round;stroke-dasharray:none;stroke-opacity:1"
         d="m 296.54206,407.40401 c 0,0 -34.94673,45.52954 -26.9197,69.0335 4.17014,12.2106 31.18982,7.8282 32.74947,20.63665 1.32952,10.9185 -20.66759,13.00263 -22.87977,23.77702 -14.7248,71.71691 75.40246,207.55378 75.40246,207.55378"
         id="path23"
         sodipodi:nodetypes="csssc"
         inkscape:label="kontur" /></g><g
       id="g14"
       inkscape:label="reka"><path
         style="fill:#f59b4e;fill-opacity:1;stroke:none;stroke-width:5;stroke-linecap:round;stroke-linejoin:round;stroke-dasharray:none;stroke-opacity:1"
         d="m 214.04709,646.02726 4.52044,-36.6394 c 13.82659,-14.36869 19.72151,-32.26256 22.84015,-51.39034 3.72892,-33.25737 9.1434,-53.87307 13.95787,-78.98885 -2.11624,-8.30343 -6.77575,-10.95517 -14.27509,-7.29615 -16.7901,10.23436 -18.50336,31.77634 -26.80546,48.3767 l -2.85502,0.95167 C 186.8204,485.20101 176.05076,448.45894 157.9777,412.07435 c -4.25181,-8.55972 -21.73758,-0.62157 -17.76456,8.88228 l 29.50185,74.54771 c -0.1422,2.1367 -1.13313,3.14177 -3.80669,1.90334 l -36.16357,-72.32713 c -4.82705,-9.6541 -19.59474,-2.88821 -17.13011,8.24783 8.22913,27.1901 21.58164,50.39534 33.30855,74.86493 0.0197,1.71347 -1.30338,2.50997 -3.17224,1.90334 -14.14364,-20.59577 -20.05225,-44.02433 -35.2119,-60.90706 -5.58775,-6.22286 -13.860685,-2.56978 -14.275089,7.61338 2.791474,22.44714 20.087189,46.10296 30.136309,69.1549 0.2774,2.03032 -1.14906,2.88105 -4.75837,2.22057 -6.43137,-16.40564 -16.30184,-29.94535 -25.060715,-44.4114 -4.099174,-6.77014 -14.309752,1.17731 -13.696722,8.15492 2.331107,14.66235 19.839229,44.74029 31.009207,69.71645 7.62768,17.05555 16.18116,33.56242 26.78169,46.79777 l -8.27037,19.38917 c 26.96406,20.91759 57.67806,21.62202 84.64212,18.20191 z"
         id="path13"
         inkscape:label="reka"
         sodipodi:nodetypes="cccccccscccscccscccscsccc" /><path
         style="fill:none;fill-opacity:0;stroke:#6a4713;stroke-width:5;stroke-linecap:round;stroke-linejoin:round;stroke-dasharray:none;stroke-opacity:1"
         d="m 208.57496,520.72367 c -26.74829,22.22144 -19.43235,31.47628 -21.57125,46.15614"
         id="path14"
         sodipodi:nodetypes="cc"
         inkscape:label="kreska" /></g><g
       id="g26"
       inkscape:label="marynarka-prawa"
       style="fill:#085e20;fill-opacity:1"><path
         style="fill:#085e20;fill-opacity:1;stroke:none;stroke-width:5;stroke-linecap:round;stroke-linejoin:round;stroke-dasharray:none;stroke-opacity:1"
         d="m 454.90361,403.7606 c -1.69174,44.01229 4.99255,81.76879 2.62916,115.15238 -21.68704,306.33571 -12.85612,210.12479 -16.43696,306.56247 l 76.93223,-3.17224 98.02153,-244.95501 C 600.45532,456.34764 522.00578,439.45117 454.90361,403.7606 Z"
         id="path24"
         sodipodi:nodetypes="cscccc"
         inkscape:label="marynarka" /><path
         style="fill:#085e20;fill-opacity:1;stroke:#003c12;stroke-width:5;stroke-linecap:round;stroke-linejoin:round;stroke-dasharray:none;stroke-opacity:1"
         d="m 476.94672,417.62577 c 0,0 33.30645,36.07947 29.97769,57.57621 -1.57914,10.19787 -21.76884,11.88818 -21.57125,22.2057 0.24059,12.5627 24.14964,13.8439 27.28129,26.01239 17.35377,67.43073 -66.02113,204.1179 -66.02113,204.1179"
         id="path25"
         sodipodi:nodetypes="csssc"
         inkscape:label="kontur" /><path
         style="fill:#085e20;fill-opacity:1;stroke:#003c12;stroke-width:5;stroke-linecap:round;stroke-linejoin:round;stroke-dasharray:none;stroke-opacity:1"
         d="m 560.85254,560.85254 -7.61338,129.11029"
         id="path26"
         inkscape:label="kontur" /></g><g
       id="g19"
       inkscape:label="laptop"><path
         style="fill:#003e14;fill-opacity:1;stroke:none;stroke-width:5;stroke-linecap:round;stroke-linejoin:round;stroke-dasharray:none;stroke-opacity:1"
         d="m 357.829,821.13507 h 160.80628 v 23.436 H 354.4393 c -7.5108,-8.22475 -6.54678,-15.1806 0.31722,-23.40535 z"
         id="path15"
         sodipodi:nodetypes="cccccc"
         inkscape:label="klawiatura" /><path
         style="fill:#003d13;fill-opacity:1;stroke:none;stroke-width:5;stroke-linecap:round;stroke-linejoin:round;stroke-dasharray:none;stroke-opacity:1"
         d="m 592.44433,580.15972 h 336.01855 c 6.326,-0.2373 14.0476,1.6122 12.7857,12.7857 l -64.9187,242.2799 c -1.5452,5.7669 -8.6856,8.6938 -15.0581,8.6938 H 524.25365 c -7.32365,0 -12.17435,-8.7578 -9.91802,-17.1786 l 64.96065,-242.4364 c 0.89659,-3.3461 5.74786,-4.1444 13.14805,-4.1444 z"
         id="path16-1"
         sodipodi:nodetypes="sccssssss"
         inkscape:label="ekran-ciemny" /><path
         style="fill:#014c17;fill-opacity:1;stroke:none;stroke-width:5;stroke-linecap:round;stroke-linejoin:round;stroke-dasharray:none;stroke-opacity:1"
         d="m 605.19228,580.0694 h 336.01854 c 6.32601,-0.23727 14.04764,1.61225 12.78576,12.78575 l -64.91869,242.27984 c -1.54525,5.76694 -8.68562,8.6938 -15.05811,8.6938 H 537.0016 c -7.32365,0 -12.17435,-8.75778 -9.91802,-17.17852 l 64.96065,-242.43645 c 0.89659,-3.34613 5.74786,-4.14442 13.14805,-4.14442 z"
         id="path16"
         sodipodi:nodetypes="sccssssss"
         inkscape:label="ekran-jasny" /><ellipse
         style="fill:#167832;fill-opacity:1;stroke:none;stroke-width:7.01463;stroke-linecap:round;stroke-linejoin:round;stroke-dasharray:none;stroke-opacity:1"
         id="path17"
         cx="984.13062"
         cy="-331.78354"
         rx="27.90093"
         ry="29.672876"
         transform="rotate(61.97127)"
         inkscape:label="logo" /></g><g
       id="g20"
       inkscape:label="stol"
       transform="translate(0.89724578,-4.4862289)"><path
         style="fill:#085e20;fill-opacity:1;stroke:none;stroke-width:35;stroke-linecap:round;stroke-linejoin:round;stroke-dasharray:none;stroke-opacity:1"
         d="m 92.416315,881.54397 v 43.96505 c 0,5.13501 3.685659,7.8509 7.850905,7.8509 h 827.0363 c 3.6494,0 6.61718,-2.8418 6.61718,-6.61719 v -46.096"
         id="path19"
         inkscape:label="nogi"
         sodipodi:nodetypes="cssssc" /><path
         style="fill:none;fill-opacity:1;stroke:#0d6d23;stroke-width:37;stroke-linecap:round;stroke-linejoin:round;stroke-dasharray:none;stroke-opacity:1"
         d="M 66.069927,864.77505 H 964.86547"
         id="path18"
         inkscape:label="blat" /></g><g
       id="g32"
       inkscape:label="message"><path
         style="fill:#085e20;fill-opacity:1;stroke:none;stroke-width:5;stroke-linecap:round;stroke-linejoin:round;stroke-dasharray:none;stroke-opacity:1"
         d="m 655.43804,200.98305 c 0,49.79714 0,149.39143 0,149.39143 0,8.12934 12.71896,16.01068 18.93606,10.93273 l 30.41246,-24.84004 H 872.1229 c 24.56668,0 42.61917,-19.58915 42.61917,-38.13295 v -98.69703 c 0,-16.97385 -11.76351,-32.42071 -37.01139,-37.01139 -17.16589,-3.12118 -122.77313,0 -184.15969,0 -17.98579,0 -38.13295,17.54705 -38.13295,38.35725 z"
         id="path31"
         sodipodi:nodetypes="ssscssssss"
         inkscape:label="cloud" /><ellipse
         style="fill:#ffffff;fill-opacity:1;stroke:none;stroke-width:6.30952;stroke-linecap:round;stroke-linejoin:round;stroke-dasharray:none;stroke-opacity:1"
         id="path32-1"
         cx="842.3371"
         cy="249.44734"
         rx="17.213194"
         ry="16.812887"
         inkscape:label="dot3" /><ellipse
         style="fill:#ffffff;fill-opacity:1;stroke:none;stroke-width:6.30952;stroke-linecap:round;stroke-linejoin:round;stroke-dasharray:none;stroke-opacity:1"
         id="path32-6"
         cx="785.99261"
         cy="247.86122"
         rx="17.213194"
         ry="16.812887"
         inkscape:label="dot2" /><ellipse
         style="fill:#ffffff;fill-opacity:1;stroke:none;stroke-width:6.30952;stroke-linecap:round;stroke-linejoin:round;stroke-dasharray:none;stroke-opacity:1"
         id="path32"
         cx="728.43005"
         cy="248.38661"
         rx="17.213194"
         ry="16.812887"
         inkscape:label="dot1" /></g></g></svg>
