<svg width="24" height="24" viewBox="0 0 24 24" fill="none" xmlns="http://www.w3.org/2000/svg">
<path d="M1.4 19.4253C1.06667 19.5586 0.75 19.5293 0.45 19.3373C0.15 19.146 0 18.867 0 18.5003V14.7753C0 14.542 0.0666667 14.3336 0.2 14.1503C0.333333 13.967 0.516667 13.8503 0.75 13.8003L8 12.0003L0.75 10.2003C0.516667 10.1503 0.333333 10.0336 0.2 9.8503C0.0666667 9.66697 0 9.45863 0 9.2253V5.5003C0 5.13363 0.15 4.8543 0.45 4.6623C0.75 4.47097 1.06667 4.44197 1.4 4.5753L16.8 11.0753C17.2167 11.2586 17.425 11.567 17.425 12.0003C17.425 12.4336 17.2167 12.742 16.8 12.9253L1.4 19.4253Z" fill="#1A5100"/>
</svg>
